<svg width="94" height="69" viewBox="0 0 94 69" fill="none" xmlns="http://www.w3.org/2000/svg">
<path d="M90.7771 23.3963L51.5892 0.884148C50.4856 0.25036 49.2002 0.0824057 47.9626 0.411976C46.7282 0.741546 45.6948 1.52427 45.06 2.62073L43.9915 4.45555L40.0108 2.16757C39.7078 1.99328 39.3474 1.94574 39.0093 2.03447C38.6712 2.1232 38.3809 2.34503 38.2087 2.64608L34.1387 9.63994L30.0687 16.6338L26.608 22.5851C26.2444 23.2125 26.4581 24.0143 27.0896 24.3755L33.4753 28.042L25.6638 35.7869C24.6368 35.0485 23.3769 34.6144 22.0149 34.6112C18.6243 34.6112 15.8557 37.2921 15.7536 40.6322H9.58168L9.59762 16.9095C9.59762 16.1838 9.00754 15.5975 8.27711 15.5975H1.3556C0.625169 15.5912 0.035086 16.1806 0.035086 16.9032L0 66.9693C0 67.695 0.590083 68.2812 1.32051 68.2812H8.23565C8.96608 68.2876 9.55616 67.6981 9.55616 66.9756L9.57211 43.2592H16.2385C17.1922 45.487 19.4153 47.0525 21.9989 47.0525C25.4501 47.0525 28.2602 44.267 28.2602 40.8382C28.2602 39.71 27.9572 38.6548 27.4277 37.7389L35.8324 29.4015L43.9054 34.0376C44.1063 34.1549 44.336 34.2151 44.5656 34.2151C44.6805 34.2151 44.7953 34.1992 44.9069 34.1707C45.245 34.082 45.5321 33.8602 45.7075 33.5591L48.508 28.7455L64.8007 38.1034C65.0048 38.2206 65.2345 38.2808 65.461 38.2808C65.7608 38.2808 66.0574 38.1794 66.2998 37.983L79.0361 27.6173L85.9895 31.6134C86.7199 32.0349 87.5365 32.2503 88.3626 32.2503C88.7804 32.2503 89.2014 32.1965 89.6161 32.0856C90.8505 31.756 91.8839 30.9733 92.5187 29.88C93.8392 27.6142 93.0545 24.7051 90.7739 23.3931L90.7771 23.3963ZM6.91514 65.6637H2.64102L2.67292 18.2246H6.94703L6.91514 65.6637ZM22.0021 44.4286C20.0054 44.4286 18.3787 42.8124 18.3819 40.8318C18.3851 38.8512 20.0086 37.2383 22.0085 37.2383C24.0084 37.2383 25.6256 38.8544 25.6256 40.835C25.6256 42.8156 23.9988 44.4286 22.0053 44.4286H22.0021ZM44.084 31.1159L29.5456 22.7657L31.6859 19.0866L46.2242 27.4367L44.084 31.1159ZM65.3366 35.3813L33.0096 16.8144L35.759 12.0895L58.4693 25.1361C58.6766 25.2565 58.9031 25.3135 59.1295 25.3135C59.5857 25.3135 60.029 25.079 60.2746 24.6576C60.6382 24.0301 60.4245 23.2284 59.793 22.8671L37.0827 9.8174L39.8322 5.0925L43.8129 7.38048L76.5992 26.2167L65.3366 35.3813ZM90.2381 28.568C89.9542 29.056 89.4917 29.4046 88.9367 29.5536C88.3817 29.7025 87.8076 29.6265 87.3164 29.3444L46.2753 5.76749L47.3438 3.9295C47.6277 3.44148 48.087 3.08973 48.642 2.94396C49.197 2.79819 49.7743 2.87107 50.2655 3.15311L89.4566 25.6653C90.4773 26.2515 90.8282 27.554 90.2381 28.568Z" fill="white"/>
</svg>
