<svg width="60" height="60" viewBox="0 0 60 60" fill="none" xmlns="http://www.w3.org/2000/svg">
<path d="M9.10885 2.97692C9.33249 2.78381 9.6418 2.7159 9.92886 2.80036L9.68087 3.62687C9.91952 2.83144 9.92863 2.80168 9.9291 2.80061C9.92926 2.80065 9.92956 2.80076 9.92983 2.80085C9.93044 2.80102 9.93136 2.80123 9.93251 2.80157C9.93493 2.80228 9.93864 2.80328 9.94344 2.80469C9.95306 2.80753 9.96747 2.81186 9.98643 2.81744C10.0244 2.82862 10.0808 2.84524 10.1548 2.86699C10.3027 2.91055 10.5208 2.9748 10.8009 3.05726C11.3609 3.22219 12.1693 3.46022 13.1623 3.75291C15.1485 4.33832 17.8738 5.14218 20.83 6.01594C26.7413 7.76312 33.5797 9.79078 37.2777 10.91C37.7375 11.0492 37.9963 11.5311 37.8558 11.9865C37.7153 12.4418 37.2286 12.6981 36.7688 12.5589C33.0773 11.4417 26.2445 9.41575 20.3321 7.66823C17.3764 6.79463 14.6515 5.99077 12.6656 5.40544C11.6727 5.1128 10.8646 4.87468 10.3046 4.70979C10.1635 4.66825 10.0381 4.63134 9.92959 4.59939L6.93517 7.5648L26.8521 22.2139C27.2381 22.4977 27.3185 23.0377 27.0319 23.4199C26.7452 23.8022 26.2 23.882 25.814 23.5982L5.08771 8.35354C4.8846 8.20413 4.75723 7.97464 4.73867 7.72476C4.72014 7.47481 4.81233 7.22918 4.99128 7.05196L9.06537 3.01733L9.10885 2.97692Z" fill="white"/>
<path d="M4.94236 39.5397C5.18652 39.332 5.52782 39.2694 5.83371 39.3807L10.47 41.0671L10.5127 41.0837C10.946 41.2664 11.1623 41.7535 10.9971 42.1936C10.8265 42.6479 10.3137 42.88 9.85212 42.7121L5.75116 41.2205L2.45901 44.4605L6.66166 46.1975C7.11537 46.3851 7.32878 46.8991 7.13829 47.3456C6.94773 47.7921 6.42543 48.0022 5.9717 47.8147L0.546022 45.5721C0.272373 45.459 0.0738715 45.2191 0.016682 44.9325C-0.040472 44.6458 0.0512337 44.3501 0.261089 44.1436L4.89487 39.5833L4.94236 39.5397Z" fill="white"/>
<path d="M29.6467 4.83336C30.3319 4.17012 31.4255 4.15231 32.1358 4.76965L32.2034 4.8312L34.995 7.53398C35.7016 8.21809 35.7054 9.32556 34.9948 10.0109L33.9004 11.0705C33.5541 11.4058 32.9928 11.4058 32.6465 11.0705C32.3002 10.7353 32.3002 10.1919 32.6465 9.85664L33.7431 8.79483C33.7479 8.79016 33.7498 8.78681 33.7507 8.78453C33.7519 8.78168 33.753 8.77776 33.753 8.77327C33.753 8.76883 33.752 8.76467 33.7505 8.76106C33.7492 8.75796 33.7467 8.75355 33.7408 8.74788L30.9536 6.04966L30.9395 6.04032C30.925 6.0346 30.9098 6.03862 30.9007 6.0475L27.5664 9.27531C27.2201 9.61047 26.6587 9.61047 26.3125 9.27531C25.9662 8.94007 25.9662 8.39642 26.3125 8.06117L29.6467 4.83336Z" fill="white"/>
<path d="M18.2624 0.928002C18.8942 0.285386 19.9028 0.268166 20.5578 0.866279L20.6201 0.925914L20.6219 0.928002L23.1943 3.54429C23.8458 4.20703 23.8492 5.27993 23.194 5.94384L21.97 7.18899C21.6507 7.51376 21.1329 7.51376 20.8136 7.18899C20.4943 6.86422 20.4943 6.33774 20.8136 6.01299L22.0398 4.76576C22.0443 4.76123 22.046 4.75799 22.0469 4.75578C22.048 4.75302 22.049 4.74922 22.049 4.74488C22.049 4.74059 22.0481 4.73654 22.0467 4.73304C22.0455 4.73005 22.0432 4.72577 22.0378 4.72028L19.4677 2.10632L19.4547 2.09727C19.4414 2.0917 19.4274 2.09562 19.4189 2.10423L16.3957 5.1788C16.0764 5.50357 15.5588 5.50358 15.2395 5.1788C14.9202 4.85402 14.9202 4.32758 15.2395 4.0028L18.2624 0.928002Z" fill="white"/>
<path d="M51.0872 4.33303C53.9456 4.1287 56.3192 6.51312 56.0279 9.34757L56.0276 9.34781C55.729 12.2447 54.887 16.1932 52.5857 19.3191C52.5694 19.3411 52.5518 19.362 52.5337 19.3823C50.4698 22.1698 48.0264 24.6566 45.3278 26.8337C45.3243 26.8365 45.3207 26.8394 45.3172 26.8422L14.5419 50.8984H14.5416C12.9106 52.1727 10.5674 52.0419 9.09461 50.5906C7.62185 49.1392 7.48915 46.8303 8.78229 45.223L8.78254 45.2228L33.1944 14.8963C33.1974 14.8927 33.2004 14.8892 33.2034 14.8856C35.4322 12.206 37.9751 9.78083 40.8312 7.73677L40.9805 7.63149C44.1287 5.44039 48.0572 4.63418 50.9505 4.34454L51.0872 4.33303ZM54.2558 9.17055C54.438 7.39685 52.9282 5.91082 51.1302 6.09048L51.1304 6.09073C48.3536 6.36872 44.7873 7.13099 42.0094 9.0638L41.8777 9.15684C39.1568 11.1042 36.7231 13.4227 34.5809 15.9981L10.1777 46.313L10.1779 46.3133C9.44583 47.2232 9.52179 48.5296 10.3541 49.3498C11.1863 50.1698 12.5117 50.2445 13.435 49.5233L44.2065 25.4699C46.8167 23.3632 49.1673 20.9647 51.1418 18.2856L51.1714 18.2477C51.1759 18.2422 51.1807 18.2369 51.1853 18.2315C53.1836 15.4834 53.9713 11.9307 54.2558 9.17055Z" fill="white"/>
<path d="M48.2876 22.25C48.7352 22.1155 49.2081 22.3508 49.3658 22.7782L49.3802 22.8202L49.8471 24.3259C51.0262 28.1403 52.7925 33.9342 54.3406 39.0272C55.2254 41.938 56.0393 44.6208 56.6319 46.5759C56.9282 47.5534 57.1692 48.349 57.3361 48.9002C57.4195 49.1758 57.4843 49.3904 57.5284 49.5361C57.5504 49.6088 57.5674 49.6644 57.5787 49.7018C57.5844 49.7204 57.5885 49.7347 57.5914 49.7442C57.5928 49.7489 57.5941 49.7526 57.5948 49.755C57.5952 49.7561 57.5954 49.757 57.5955 49.7576C57.5956 49.7579 57.5958 49.7582 57.5958 49.7583C57.595 49.7587 57.5697 49.7662 56.7573 50.0034L57.5958 49.7586C57.6872 50.0608 57.6028 50.388 57.3759 50.611L53.2817 54.6326C53.1019 54.8093 52.8526 54.9003 52.599 54.882C52.3454 54.8637 52.1123 54.738 51.9607 54.5374L36.489 34.0755L36.4631 34.0392C36.2063 33.661 36.2939 33.1472 36.6696 32.873C37.0453 32.5989 37.5713 32.665 37.8657 33.0157L37.8935 33.0507L52.7608 52.7133L55.77 49.7574C55.7378 49.651 55.7007 49.5283 55.6589 49.3903C55.492 48.8392 55.2512 48.0436 54.955 47.0662C54.3625 45.1114 53.5488 42.429 52.6642 39.5187C51.1158 34.4248 49.3508 28.6355 48.1734 24.8266L47.7069 23.3232L47.695 23.2805C47.5821 22.8396 47.84 22.3845 48.2876 22.25Z" fill="white"/>
<path d="M17.6159 48.7168C18.0626 48.5539 18.5569 48.7671 18.7423 49.1942L18.7595 49.2361L20.4707 53.8031C20.5912 54.1248 20.511 54.4862 20.2653 54.7287L15.6373 59.2957C15.4276 59.5026 15.1273 59.5927 14.8364 59.5363C14.5455 59.48 14.3021 59.2843 14.1873 59.0146L11.9116 53.6674L11.8948 53.6252C11.7347 53.1883 11.9485 52.6995 12.3874 52.5176C12.8406 52.3298 13.3622 52.54 13.5526 52.9871L15.3154 57.129L18.6033 53.8845L17.09 49.8453L17.0751 49.8024C16.9344 49.359 17.1693 48.8798 17.6159 48.7168Z" fill="white"/>
<path d="M50.8046 25.0659C51.5317 24.3707 52.7069 24.3744 53.4327 25.0659L56.2999 27.7977C57.0209 28.4894 57.024 29.6074 56.2977 30.2995L52.8055 33.6266C52.4498 33.9655 51.8731 33.9655 51.5174 33.6266C51.1618 33.2878 51.1618 32.7384 51.5174 32.3996L55.0095 29.0725C55.0219 29.0606 55.0253 29.0386 55.008 29.0214L52.1446 26.2932C52.1386 26.2875 52.1339 26.285 52.1306 26.2838C52.1267 26.2823 52.1223 26.2814 52.1176 26.2814C52.1129 26.2814 52.1089 26.2821 52.1059 26.2833C52.1035 26.2842 52.0998 26.2862 52.0947 26.291L51.291 27.0566C50.9353 27.3955 50.3588 27.3955 50.0031 27.0566C49.6474 26.7177 49.6474 26.1684 50.0031 25.8296L50.8046 25.0659Z" fill="white"/>
<path d="M56.099 45.2977C55.7609 45.6342 55.2126 45.6342 54.8745 45.2977C54.5364 44.9612 54.5364 44.4154 54.8745 44.0789L56.099 45.2977ZM54.2612 36.7317C54.9524 36.0412 56.0695 36.0449 56.7594 36.7317L59.4849 39.4447L59.5472 39.5103C60.1697 40.2006 60.1516 41.2634 59.4827 41.9292L56.099 45.2977L54.8745 44.0789L58.2585 40.7106C58.2704 40.6987 58.2734 40.6764 58.2563 40.6592L55.5349 37.9505C55.5293 37.9449 55.525 37.9424 55.5219 37.9411C55.5182 37.9396 55.5139 37.9387 55.5093 37.9387C55.5049 37.9387 55.5011 37.9395 55.4982 37.9407C55.4959 37.9416 55.4924 37.9436 55.4876 37.9484L54.3723 39.0585C54.0342 39.3949 53.4862 39.3949 53.1481 39.0585C52.81 38.722 52.81 38.1762 53.1481 37.8397L54.2612 36.7317Z" fill="white"/>
<path d="M46.5047 8.40757C47.9843 7.94775 49.6708 8.29045 50.8459 9.45075L50.957 9.56451C52.0805 10.7558 52.3766 12.4264 51.8568 13.8694L51.841 13.9101C51.6672 14.3246 51.192 14.5362 50.7583 14.3845C50.3107 14.2279 50.0767 13.7434 50.2356 13.3023L50.2644 13.2176C50.5459 12.3394 50.3333 11.3433 49.6293 10.6495L49.6286 10.6488C48.905 9.93403 47.8517 9.733 46.9367 10.0524L46.8944 10.0659C46.4584 10.194 45.9923 9.9638 45.8387 9.53636C45.6801 9.09514 45.9144 8.61071 46.3621 8.4544L46.5047 8.40757Z" fill="white"/>
</svg>
