<svg width="63" height="60" viewBox="0 0 63 60" fill="none" xmlns="http://www.w3.org/2000/svg">
<path d="M55.7108 28.1021V17.8406C54.2014 17.5478 52.7123 17.1461 51.2519 16.6377L50.9132 16.5176C48.9331 15.8032 47.0444 14.903 45.2612 13.8282C44.4686 14.3059 43.6537 14.7498 42.8204 15.1561C42.3844 15.3686 41.8562 15.1928 41.6404 14.7632C41.4246 14.3336 41.6032 13.8129 42.0393 13.6003C42.9824 13.1405 43.9012 12.6299 44.7883 12.0736L44.8434 12.0419C45.1227 11.8935 45.4636 11.9041 45.7341 12.0736C47.548 13.2105 49.4817 14.1525 51.5188 14.8875H51.5186C53.2236 15.5022 54.9695 15.962 56.7414 16.2631C57.1639 16.3348 57.4726 16.696 57.4726 17.1185V28.1021C57.4726 32.3042 56.0473 36.3235 53.476 39.5725C53.1768 39.9504 52.6233 40.0179 52.2397 39.7231C51.8561 39.4283 51.7877 38.8829 52.0868 38.5049C54.4182 35.5591 55.7108 31.915 55.7108 28.1021Z" fill="white"/>
<path d="M54.0979 46.3897C53.7251 46.6976 53.1695 46.6494 52.8569 46.2821C52.5444 45.9148 52.5933 45.3673 52.966 45.0594L54.0979 46.3897ZM60.9967 28.0997V13.208C58.1563 13.1153 55.3688 12.5755 52.7333 11.6246C50.0488 10.6561 47.5244 9.26079 45.264 7.47801C43.7721 8.65423 42.1664 9.66374 40.4735 10.491C40.0377 10.7039 39.5091 10.5283 39.293 10.0989C39.077 9.66945 39.2551 9.14865 39.6909 8.9357C41.4615 8.07051 43.1317 6.99129 44.6655 5.71663C44.8281 5.56812 45.042 5.48509 45.2645 5.48511C45.4872 5.48516 45.7009 5.56857 45.8635 5.71736C48.0995 7.57729 50.6325 9.01795 53.3391 9.99451C56.0541 10.974 58.9415 11.4866 61.8776 11.4866C62.3641 11.4866 62.7584 11.8752 62.7584 12.3546V28.0997C62.7584 35.329 59.4594 41.961 54.0979 46.3897L52.966 45.0594C57.9384 40.9521 60.9967 34.8026 60.9967 28.0997Z" fill="white"/>
<path d="M0 58.6849V46.5902C4.2317e-06 40.6165 3.33992 35.4152 8.27618 32.6987C8.70087 32.465 9.23737 32.6147 9.4746 33.0331C9.71181 33.4516 9.55988 33.9805 9.13518 34.2143C4.73413 36.6362 1.76176 41.2702 1.76176 46.5902V58.6849C1.76169 59.1642 1.36733 59.5529 0.880878 59.5529C0.394422 59.5529 6.43332e-05 59.1642 0 58.6849Z" fill="white"/>
<path d="M49.7893 58.6825V46.588C49.7893 41.2709 46.8171 36.6361 42.4153 34.2136L42.2047 34.1L42.1654 34.0779C41.7664 33.8406 41.6222 33.3339 41.8451 32.9247C42.068 32.5155 42.5761 32.3539 42.9974 32.5503L43.0379 32.5704L43.2741 32.698C48.2113 35.4152 51.551 40.6171 51.551 46.588V58.6825C51.551 59.1618 51.1566 59.5504 50.6701 59.5505C50.1836 59.5505 49.7893 59.1619 49.7893 58.6825Z" fill="white"/>
<path d="M24.7844 57.2421V47.0841L16.6943 39.1125V39.1123C15.4617 37.9001 14.7701 36.2535 14.7701 34.5384V32.1254H11.1107C10.2887 32.1254 9.6175 32.7699 9.58929 33.5731L9.99975 36.4301L10.0514 36.7985C10.572 40.6066 10.6723 44.46 10.3475 48.2899L9.58511 57.3141L9.5802 57.3586C9.51802 57.8137 9.10378 58.1455 8.63419 58.107C8.14937 58.0672 7.78889 57.6477 7.82926 57.17L8.59191 48.1456V48.1454C8.91611 44.3218 8.80242 40.4736 8.25544 36.674L8.2552 36.6737L7.83491 33.7472C7.82913 33.707 7.82631 33.6663 7.82631 33.6257C7.82633 31.8394 9.29787 30.3894 11.1107 30.3894H15.651C16.1375 30.3894 16.5319 30.778 16.5319 31.2574V34.5384C16.5319 35.7547 17.007 36.9233 17.8559 37.8004L17.9392 37.8844L26.2881 46.111C26.4533 46.2738 26.5462 46.4945 26.5462 46.7247V57.2421C26.5462 57.7215 26.1518 58.1101 25.6653 58.1101C25.1789 58.1101 24.7845 57.7215 24.7844 57.2421Z" fill="white"/>
<path d="M24.7852 57.2441V46.7267C24.7852 46.4965 24.878 46.2758 25.0432 46.113L33.7839 37.5001C34.4318 36.8618 34.797 35.9938 34.797 35.0909V31.2593C34.797 30.78 35.1914 30.3914 35.6779 30.3914H40.2182C42.031 30.3914 43.5026 31.8414 43.5026 33.6276C43.5026 33.6688 43.4997 33.7101 43.4937 33.7509L43.378 34.5469L43.3777 34.5467C42.6505 39.5966 42.481 44.7107 42.8756 49.7954L42.9157 50.2875V50.2877L43.4969 57.1695C43.5373 57.6472 43.1771 58.0667 42.6923 58.1065C42.2075 58.1463 41.7817 57.7913 41.7413 57.3136L41.1601 50.432L41.119 49.9278C40.7146 44.7169 40.8884 39.4763 41.6337 34.3018L41.6339 34.3006L41.7394 33.5746C41.7109 32.7716 41.04 32.1273 40.2182 32.1273H36.5588V35.0909C36.5588 36.4545 36.0078 37.764 35.0298 38.7277L26.5469 47.0861V57.2441C26.5469 57.7234 26.1525 58.1121 25.666 58.1121C25.1796 58.1121 24.7852 57.7234 24.7852 57.2441Z" fill="white"/>
<path d="M19.4206 14.7758C23.0884 13.0483 27.3454 13.0214 31.0316 14.6949L31.2066 14.7758L31.2068 14.776L34.8476 16.4916C35.3603 16.7326 35.9533 16.364 35.9533 15.8045V5.61697C35.9533 3.7128 34.3868 2.16735 32.4524 2.16735H18.1748C16.2423 2.16735 14.6739 3.71097 14.6739 5.61697V15.8045C14.6739 16.3654 15.2657 16.733 15.7794 16.4916L19.4206 14.776V14.7758ZM37.7151 15.8045C37.715 17.6406 35.771 18.8491 34.0891 18.0585L34.0883 18.058L30.4468 16.3419V16.3422C27.2013 14.8136 23.4259 14.8136 20.1803 16.3422L20.1801 16.3419L16.5389 18.058L16.5381 18.0585C14.8572 18.8487 12.9122 17.6441 12.9121 15.8045V5.61697C12.9121 2.75158 15.27 0.431396 18.1748 0.431396H32.4524C35.3604 0.431396 37.7151 2.75471 37.7151 5.61697V15.8045Z" fill="white"/>
<path d="M20.914 10.1426C21.4005 10.1426 21.7949 10.5312 21.7949 11.0106C21.7949 11.4899 21.4005 11.8785 20.914 11.8785H13.7891C13.3026 11.8785 12.9082 11.4899 12.9082 11.0106C12.9082 10.5312 13.3026 10.1426 13.7891 10.1426H20.914Z" fill="white"/>
<path d="M36.8328 10.1426L36.878 10.1438C37.3435 10.167 37.7137 10.5461 37.7137 11.0106C37.7137 11.475 37.3435 11.8541 36.878 11.8773L36.8328 11.8785H30.1758C29.6893 11.8785 29.2949 11.4899 29.2949 11.0106C29.2949 10.5312 29.6893 10.1426 30.1758 10.1426H36.8328Z" fill="white"/>
<path d="M12.5488 18.6538C12.5488 17.7143 12.8686 16.8312 13.4223 16.1879C13.737 15.8223 14.293 15.7773 14.664 16.0874C15.0349 16.3975 15.0806 16.9451 14.766 17.3107C14.5044 17.6146 14.3106 18.0905 14.3106 18.6538C14.3106 19.8171 15.0256 20.3798 15.4935 20.3798C15.5374 20.3798 15.5842 20.3758 15.6437 20.3655L15.6884 20.359C16.151 20.3028 16.582 20.6135 16.6632 21.071C16.747 21.5432 16.4264 21.9929 15.9472 22.0756C15.8055 22.1 15.656 22.1158 15.4935 22.1158C13.6762 22.1158 12.5488 20.3572 12.5488 18.6538Z" fill="white"/>
<path d="M14.9102 22.6736V21.223C14.9102 20.7436 15.3045 20.355 15.791 20.355C16.2775 20.355 16.6719 20.7436 16.6719 21.223V22.6736C16.6719 22.7088 16.6728 22.7455 16.6741 22.7949C16.6752 22.8348 16.676 22.8845 16.6763 22.9371H16.6766C16.7707 26.2459 18.7 28.9941 21.6431 30.6602L21.7842 30.739L21.7846 30.7392C23.1037 31.4641 24.5906 31.8509 26.0084 31.7031C27.1705 31.5804 28.3088 31.104 29.352 30.4256H29.3522C30.7169 29.5387 31.9884 28.4601 32.742 27.1787L32.7425 27.1777C33.495 25.9016 33.9009 24.4252 33.9424 22.9376L33.9434 22.917C33.9471 22.8461 33.9471 22.7737 33.9471 22.6736V21.223C33.9471 20.7436 34.3415 20.355 34.828 20.355C35.3145 20.355 35.7089 20.7436 35.7089 21.223V22.6736C35.7089 22.7617 35.7085 22.8702 35.7032 22.9851L35.7037 22.9853C35.6546 24.7464 35.1745 26.5088 34.2659 28.0498C33.3131 29.6694 31.7813 30.9267 30.3223 31.8748L30.3221 31.8745C29.1154 32.6592 27.7118 33.2691 26.1962 33.4291L26.1952 33.4293C24.3367 33.6234 22.487 33.1124 20.9274 32.2555V32.2557C17.4565 30.3522 15.0314 27.0592 14.9156 22.9858C14.9153 22.9777 14.9151 22.9694 14.9151 22.9613C14.9151 22.9261 14.9142 22.8895 14.9129 22.84C14.9116 22.794 14.9102 22.735 14.9102 22.6736Z" fill="white"/>
<path d="M36.3132 18.6538C36.3132 18.1257 36.1428 17.6745 35.906 17.3697L35.8578 17.3106L35.8293 17.276C35.5462 16.9112 35.6004 16.3878 35.9598 16.0874C36.3308 15.7773 36.8865 15.8223 37.2012 16.1879C37.755 16.8312 38.075 17.7142 38.075 18.6538C38.075 20.3572 36.9475 22.1157 35.1303 22.1157C34.9678 22.1157 34.8181 22.1 34.6763 22.0755C34.1971 21.9929 33.8767 21.5432 33.9606 21.071C34.0445 20.5988 34.5009 20.2829 34.9801 20.3655C35.0396 20.3758 35.0864 20.3798 35.1303 20.3798C35.5982 20.3798 36.3132 19.8171 36.3132 18.6538Z" fill="white"/>
<path d="M8.70556 53.0519C9.19205 53.0519 9.58643 53.4405 9.58643 53.9199C9.58643 54.3992 9.19205 54.7878 8.70556 54.7878H0.880878C0.394383 54.7878 0 54.3992 0 53.9199C0 53.4405 0.394383 53.0519 0.880878 53.0519H8.70556Z" fill="white"/>
<path d="M50.6684 53.0518C51.1549 53.0518 51.5493 53.4404 51.5493 53.9197C51.5493 54.3991 51.1549 54.7877 50.6684 54.7877H42.8438C42.3573 54.7877 41.9629 54.3991 41.9629 53.9197C41.9629 53.4404 42.3573 53.0518 42.8438 53.0518H50.6684Z" fill="white"/>
</svg>
