<svg width="36" height="60" viewBox="0 0 36 60" fill="none" xmlns="http://www.w3.org/2000/svg">
<path d="M19.802 30.7535C19.6468 30.7589 19.5423 30.8941 19.5993 31.0184C19.8242 31.5022 21.0816 33.8403 23.378 38.0325C23.6028 38.4461 24.0684 38.7488 24.7716 38.9407C26.8018 39.4975 28.2493 39.5705 30.8402 39.7759C31.3502 39.8165 31.6384 39.8219 31.6986 39.7976C31.7492 39.7732 31.8094 39.7759 31.8601 39.8003C31.9805 39.8624 32.7121 39.9435 34.0582 40.0462C34.5555 40.0841 35.1351 40.2733 35.7971 40.6139C35.9016 40.6679 35.9745 40.7625 35.9871 40.8652C36.0632 41.4247 35.8256 41.9302 35.2713 42.3843C33.7035 43.6709 31.3787 45.6305 28.2968 48.2605C27.9896 48.5227 27.8154 48.8038 27.7806 49.0984C27.7742 49.1498 27.7806 49.1984 27.7901 49.2471C27.9896 50.0606 28.1226 50.685 28.1923 51.1202C28.281 51.6581 28.4204 52.2554 28.6104 52.9123C28.8986 53.9123 29.095 54.8232 29.2027 55.6449C29.3231 56.5802 29.7918 57.4937 29.8013 58.5019C29.814 59.7075 28.7213 59.7102 27.7742 59.229C25.1675 57.9019 22.5228 56.6477 19.8369 55.4611C19.3016 55.226 18.8043 55.08 18.3387 55.0287C18.1645 55.0097 17.9871 55.0179 17.8193 55.0584C17.455 55.1395 16.7645 55.4071 15.7542 55.8639C12.9637 57.1207 10.4014 58.3019 8.07019 59.4101C7.69645 59.5858 7.3227 59.5993 6.94895 59.448C6.31865 59.1912 6.25214 58.6722 6.41051 58.0533C7.17383 55.0341 7.81364 52.35 8.33308 50.0066C8.48195 49.3309 8.44711 48.7551 8.22539 48.2767C8.17788 48.174 8.0987 48.0848 7.99418 48.0199C6.81909 47.2658 5.6155 46.309 4.37707 45.1494C4.24721 45.0278 4.02866 44.8872 3.71827 44.725C3.61374 44.6737 3.52189 44.6115 3.43637 44.5385C2.68254 43.9006 1.74501 43.1952 0.623773 42.4221C-0.221907 41.8356 -0.231409 40.8274 0.740965 40.3625C0.858156 40.3057 0.991185 40.2787 1.12421 40.2841C1.79886 40.3084 2.38481 40.2381 2.87892 40.076C2.88525 40.076 2.89159 40.076 2.89476 40.0733L11.4212 39.2651C11.6018 39.2489 11.7696 39.1786 11.8995 39.0705C12.5013 38.5758 12.8655 38.2082 12.9922 37.9677C13.3185 37.3406 13.6004 36.8324 13.8411 36.4405C14.0343 36.1243 14.3067 35.6107 14.6519 34.8971C15.2411 33.6754 15.9917 32.3374 16.9071 30.886C16.9768 30.7751 16.8817 30.64 16.7329 30.64L12.1561 30.6265C12.1149 30.6265 12.0737 30.6211 12.0325 30.6103C10.8099 30.3183 10.0561 30.1021 9.9801 28.9209C9.88825 27.5019 10.0276 26.1747 10.4045 24.9395C10.4394 24.8314 10.4014 24.7178 10.3127 24.6422C5.05172 20.1418 2.11559 17.6118 1.50429 17.0523C0.899332 16.5009 0.696622 15.9684 0.696622 15.1575C0.696622 7.58928 0.702956 3.16726 0.706124 1.89147C0.709291 1.25628 0.988017 0.802187 1.54547 0.526487C1.66266 0.467022 1.79886 0.43729 1.93505 0.43729C13.575 0.426478 24.2553 0.431884 33.9822 0.442696C34.6093 0.442696 35.0718 0.629199 35.3695 0.996799C35.5627 1.23736 35.6609 1.66713 35.6609 2.29151C35.6641 9.54351 35.6577 13.9142 35.6419 15.4008C35.6324 16.4955 34.1152 17.6794 33.1809 18.5065C29.776 21.5203 27.4512 23.5961 26.2064 24.7314C26.0924 24.8368 26.0512 24.9854 26.0955 25.1233C26.5358 26.4721 26.6973 27.8857 26.5801 29.3615C26.5738 29.4291 26.558 29.4939 26.5326 29.5561C26.3743 29.9643 26.0068 30.2724 25.4272 30.4859C25.4051 30.494 25.3829 30.4967 25.3607 30.4994L19.802 30.7535ZM3.40153 2.54829C3.30968 2.54829 3.23683 2.61046 3.23683 2.68884V15.2846C3.23683 15.3197 3.25267 15.3548 3.28434 15.3819L11.5828 22.7339C11.6841 22.8258 11.8647 22.7636 11.8647 22.6366V2.68884C11.8647 2.61046 11.7918 2.54829 11.7 2.54829H3.40153ZM22.1459 2.72398C22.1459 2.62938 22.054 2.55099 21.9431 2.55099H14.5886C14.4777 2.55099 14.3859 2.62938 14.3859 2.72398V24.7314C14.3859 24.826 14.4777 24.9043 14.5886 24.9043H21.9431C22.054 24.9043 22.1459 24.826 22.1459 24.7314V2.72398ZM24.7241 2.55099C24.6449 2.55099 24.5815 2.60505 24.5815 2.67263V22.7366C24.5815 22.8474 24.7399 22.9015 24.8286 22.8204L33.0383 15.4521C33.0637 15.4305 33.0764 15.4008 33.0764 15.3684V2.67263C33.0764 2.60505 33.013 2.55099 32.9338 2.55099H24.7241ZM24.1793 27.1964C24.1793 27.1126 24.1001 27.0478 24.0051 27.0478L12.6407 27.064C12.5425 27.064 12.4665 27.1316 12.4665 27.2127V28.2776C12.4665 28.3614 12.5456 28.4263 12.6438 28.4263L24.0083 28.4101C24.1064 28.4101 24.1825 28.3425 24.1825 28.2614V27.1964M18.0822 33.5348L14.7406 39.7111C14.6836 39.8165 14.6044 39.9111 14.5062 39.9922L13.3913 40.9085C13.3438 40.9463 13.2868 40.9733 13.2266 40.9923C11.871 41.3707 10.5629 41.5896 9.29912 41.6491C9.18193 41.6545 9.06474 41.6707 8.95071 41.6977C8.50412 41.8059 8.1177 41.8626 7.79147 41.868C6.54037 41.8869 5.4318 41.9788 4.47209 42.1437C4.38341 42.1599 4.35173 42.2545 4.41825 42.3059L10.6959 47.4037C10.8289 47.5091 10.905 47.655 10.9113 47.8118C10.9303 48.3713 10.943 49.0849 10.8321 49.6606C10.5122 51.3554 10.1163 53.0852 9.64436 54.853C9.52084 55.3152 9.25478 55.6503 9.41315 56.2017C9.43532 56.2801 9.53984 56.3207 9.62536 56.2855C10.49 55.9206 11.4371 55.4773 12.4633 54.9557C13.2076 54.5746 14.7565 53.8718 17.1098 52.8474C17.8034 52.5447 18.5288 52.5365 19.2794 52.8258C19.9762 53.0934 21.3128 53.6772 23.2861 54.58C24.3947 55.0881 25.3955 55.7179 26.6276 56.172C26.7765 56.2261 26.9317 56.1098 26.8905 55.9774C26.1779 53.6664 25.6204 51.331 25.2245 48.9741C25.158 48.5713 25.1802 48.0037 25.4811 47.7388C26.162 47.1415 28.2208 45.3791 31.6637 42.4492C31.8411 42.2978 31.7271 42.041 31.48 42.0248L27.9864 41.7977C27.9579 41.795 27.9294 41.7896 27.9009 41.7815C27.0996 41.5275 26.3362 41.6734 25.5254 41.4301C25.4051 41.395 25.2752 41.3734 25.1453 41.3653C23.4603 41.2761 22.2567 40.6625 21.5314 39.5246C20.464 37.8487 19.4219 35.8567 18.3989 33.5457C18.345 33.424 18.1455 33.4159 18.0822 33.5348Z" fill="white"/>
</svg>
