<svg width="138" height="59" viewBox="0 0 138 59" fill="none" xmlns="http://www.w3.org/2000/svg">
<path d="M117.068 0.1127C115.512 0.474182 114.089 0.995815 112.799 1.6776C112.144 2.02078 111.609 2.34565 111.609 2.39599C111.609 2.44174 111.806 3.17844 112.867 7.11356C113.865 10.8062 113.805 10.5499 113.805 11.0899C113.801 12.0508 113.563 12.6502 112.94 13.2725C112.597 13.6111 112.469 13.7026 112.062 13.8994C111.586 14.1327 111.485 14.1648 108.909 14.8465C108.255 15.0204 106.928 15.3773 105.409 15.7891C104.832 15.9447 104.192 16.114 103.99 16.1689L103.624 16.265L103.588 16.4938C103.51 17.0063 103.656 18.9418 103.858 20.0308C104.022 20.9231 104.306 22.003 104.544 22.6298L104.617 22.822L105.102 22.6939C105.372 22.6207 106.178 22.4056 106.896 22.2135C107.614 22.0167 108.488 21.7833 108.841 21.6872C109.193 21.5957 109.916 21.4035 110.442 21.2617C110.973 21.1199 111.65 20.9368 111.952 20.8545L112.497 20.7035L113.05 19.7426C113.357 19.2118 114.428 17.3586 115.43 15.6244C117.315 12.3573 118.344 10.5728 119.328 8.86606L119.9 7.87313L119.273 5.54866C118.038 0.972936 117.786 0.0303367 117.786 0.0166095C117.786 -0.024572 117.498 0.0120338 117.068 0.1127Z" fill="#F5F5F3"/>
<path d="M123.758 0.0760763C123.745 0.121834 123.424 1.31152 123.049 2.72085C122.674 4.13017 122.207 5.86894 122.015 6.58276L121.672 7.87769L122.322 9.00789C122.679 9.62561 123.264 10.6369 123.617 11.2546C123.973 11.8723 124.733 13.1901 125.31 14.183C125.882 15.176 126.627 16.4617 126.957 17.0429C127.291 17.6194 127.904 18.681 128.32 19.3994L129.075 20.7034L129.615 20.8499C130.146 20.9963 131.327 21.312 132.814 21.7101C133.216 21.8199 133.99 22.0258 134.53 22.1677C136.474 22.6893 136.84 22.7854 136.914 22.7854C137.083 22.7854 137.664 20.5662 137.847 19.2163C137.939 18.53 138.03 16.7363 137.989 16.4663L137.957 16.2513L137.49 16.1323C137.234 16.0682 136.603 15.8989 136.085 15.7617C135.568 15.6198 134.717 15.391 134.187 15.2538C133.66 15.1119 132.896 14.906 132.494 14.8008C132.091 14.6909 131.359 14.4988 130.869 14.3706C129.597 14.032 129.021 13.7346 128.476 13.1306C128.206 12.8286 128.064 12.5815 127.909 12.1423C127.794 11.8128 127.785 11.7259 127.785 11.1173V10.4538L128.119 9.24125C128.302 8.5732 128.645 7.30572 128.879 6.42718C129.117 5.54407 129.451 4.28117 129.629 3.61769C129.808 2.95421 129.954 2.39597 129.954 2.37767C129.954 2.32276 128.837 1.69588 128.192 1.38931C127.076 0.858525 126.028 0.487892 124.761 0.176742C123.932 -0.0245896 123.795 -0.0383168 123.758 0.0760763Z" fill="#F5F5F3"/>
<path d="M110.496 25.0641C108.917 26.6427 107.627 27.956 107.627 27.9834C107.627 28.0109 107.851 28.2808 108.13 28.5874C108.917 29.4522 109.933 30.3399 110.944 31.0446C111.471 31.4106 112.285 31.914 112.582 32.0558L112.756 32.1382L115.763 29.1365C117.414 27.4892 118.86 26.0753 118.975 26.0021C119.528 25.6315 120.032 25.4485 120.622 25.4119C121.162 25.3753 121.578 25.4714 122.178 25.7642L122.658 26.0021L124.42 27.7455C125.39 28.7018 126.781 30.0837 127.518 30.8112L128.849 32.1336L129.211 31.9369C130.689 31.1315 132.327 29.8229 133.512 28.5051L133.983 27.9788L131.091 25.087L128.195 22.1906H120.782H113.37L110.496 25.0641Z" fill="#F5F5F3"/>
<path d="M81.498 30.7241V33.6296H83.278H85.058L86.3666 32.2935L87.6753 30.9528V29.3879V27.8185H84.5867H81.498V30.7241Z" fill="#F5F5F3"/>
<path d="M67.7182 31.0306L67.7044 34.1101L66.2539 34.1238L64.7988 34.133V36.8784V39.6238H67.5077H70.2211L68.9719 40.873L67.7227 42.1222L67.741 45.92C67.7548 49.5303 67.7593 49.7408 67.8509 50.3082C68.2718 52.8523 69.0909 54.5956 70.5231 55.9821C71.7951 57.2129 73.2411 57.8947 75.3002 58.2333C75.6983 58.2974 76.0597 58.3157 77.0618 58.3157C77.7528 58.3157 78.3751 58.2974 78.4483 58.2791L78.5718 58.247L78.5627 55.4421L78.549 52.6418L77.9312 52.6326C76.9703 52.6189 76.3572 52.4954 75.7806 52.2071C74.957 51.7953 74.4765 51.1958 74.1608 50.2029C73.9137 49.4205 73.9046 49.1779 73.9046 44.195V39.6238H76.078H78.2515V36.8784V34.133H76.078H73.9046V31.0443V27.9557H70.8159H67.7273L67.7182 31.0306Z" fill="#F5F5F3"/>
<path d="M10.2085 33.5197C7.28917 33.7211 4.96926 34.682 3.16642 36.4391C1.46424 38.1046 0.485029 40.1134 0.114394 42.717C0.0411817 43.2066 0.0320302 43.989 0.018303 50.7748L0 58.2927H3.11151H6.22759L6.23674 50.7748L6.25047 43.2615L6.37402 42.8405C6.76296 41.5135 7.56829 40.5618 8.77171 40.0081C9.34825 39.7382 9.91107 39.6192 10.6935 39.5917C13.2331 39.5002 14.7659 40.603 15.3013 42.8954C15.3974 43.3026 15.3974 43.3667 15.4111 50.7977L15.4294 58.2927H18.5135H21.5975L21.6113 50.8663L21.625 43.4445L21.7531 42.9732C22.1924 41.3031 23.3134 40.1774 24.9699 39.7336C25.5739 39.5734 26.6675 39.5277 27.3081 39.6421C27.9441 39.7519 28.5344 39.9578 28.9462 40.214C30.0672 40.9095 30.7216 42.1084 30.8451 43.719C30.868 44.0302 30.8909 47.3339 30.8909 51.2781V58.2927H33.9795H37.0727L37.0544 50.6833C37.0361 42.4378 37.0498 42.7627 36.789 41.5501C36.1896 38.7544 34.7391 36.5718 32.5519 35.1716C31.7374 34.65 30.447 34.1054 29.4907 33.8812C25.3771 32.9066 21.5609 33.8767 18.9802 36.5489L18.6187 36.9241L18.1611 36.4436C17.3741 35.62 16.5596 35.0297 15.5072 34.5218C14.5143 34.046 13.4207 33.7257 12.2813 33.5884C11.8558 33.5335 10.5883 33.4923 10.2085 33.5197Z" fill="#F5F5F3"/>
<path d="M51.0468 33.5428C48.3059 33.767 45.7984 34.8606 43.7302 36.7321C41.7901 38.4846 40.3899 40.9555 39.8408 43.5911C39.6303 44.6069 39.6074 44.8906 39.6074 46.2816C39.612 47.6955 39.6395 47.9838 39.8865 49.0865C40.7239 52.8524 43.2589 56.0462 46.7227 57.6935C49.0197 58.7871 51.6325 59.1257 54.3642 58.6773C58.4137 58.0184 61.6168 55.5978 63.1268 52.0699C63.2686 51.745 63.653 50.6835 63.653 50.624C63.653 50.6148 62.1659 50.6057 60.3493 50.6057H57.041L56.8397 50.9306C56.4416 51.5803 55.6729 52.2804 54.8675 52.7242C54.4878 52.9347 53.5909 53.2321 53.0601 53.3282C52.511 53.4289 51.3259 53.4289 50.7722 53.3328C49.8937 53.1772 48.887 52.7608 48.2007 52.2712C47.6424 51.8732 46.7136 50.9168 46.8005 50.8299C46.8188 50.8116 47.0842 50.6926 47.3862 50.5691C47.6882 50.4455 48.2053 50.2259 48.5301 50.0886C48.8596 49.9514 49.5688 49.6539 50.1088 49.4251C50.6487 49.2009 51.5684 48.812 52.145 48.5695C54.2498 47.6818 55.6225 47.1052 57.0181 46.5196C57.5855 46.2816 58.5007 45.8973 59.0544 45.6639C59.608 45.4305 60.5232 45.0462 61.0906 44.8082C62.5777 44.1814 63.4699 43.8062 63.6667 43.7238C63.868 43.6368 63.868 43.7146 63.653 42.7995C63.0902 40.4384 62.024 38.4846 60.4088 36.8739C59.1093 35.579 57.7594 34.7508 55.9886 34.1559C54.474 33.648 52.5888 33.4147 51.0468 33.5428ZM53.1791 39.0749C54.4237 39.3128 55.4853 39.871 56.3501 40.7404L56.7161 41.1019L56.5331 41.1888C56.437 41.2346 56.1396 41.3627 55.8742 41.4725C55.6088 41.5823 55.0735 41.8066 54.6845 41.9713C54.2956 42.136 53.504 42.47 52.9228 42.7126C52.3463 42.9551 51.6142 43.2616 51.2985 43.3989C50.9827 43.5316 50.4702 43.7467 50.1545 43.8794C49.8388 44.0121 49.3263 44.2271 49.0106 44.3598C48.1686 44.7167 45.4735 45.8561 45.4095 45.879C45.2813 45.9293 45.3957 44.8906 45.6062 44.0395C46.3063 41.2575 48.5347 39.267 51.2619 38.9833C51.7743 38.933 52.6437 38.9742 53.1791 39.0749Z" fill="#F5F5F3"/>
<path d="M100.1 33.5246C99.9262 33.5337 99.4916 33.5703 99.1392 33.6115C95.9179 33.9684 93.3738 35.2634 91.9187 37.295C91.5664 37.7846 91.1225 38.654 90.9441 39.1893C90.4224 40.7679 90.5277 42.5799 91.214 43.9481C91.6853 44.8907 92.5456 45.7738 93.6117 46.4144C94.17 46.7484 95.1263 47.1694 95.9362 47.4394C97.0527 47.8146 98.2241 48.0754 100.333 48.4277C103.106 48.8944 103.898 49.082 104.68 49.4618C105.472 49.8462 105.769 50.2763 105.769 51.0405C105.769 51.3424 105.747 51.4523 105.646 51.6719C105.207 52.6282 103.646 53.2139 101.519 53.2231C100.091 53.2322 98.7732 52.8799 97.7802 52.2301C97.2769 51.8961 96.7141 51.3058 96.4441 50.8208L96.2245 50.4227H93.0947C91.1134 50.4227 89.9648 50.441 89.9648 50.4685C89.9648 50.6012 90.1616 51.4889 90.2668 51.8321C90.729 53.3558 91.5069 54.6278 92.6462 55.7306C93.4653 56.5267 94.1791 57.0163 95.2956 57.5609C96.5493 58.174 97.9907 58.5812 99.6197 58.778C100.475 58.8832 102.301 58.8832 103.166 58.778C105.623 58.476 107.732 57.6524 109.288 56.3849C109.705 56.0417 110.336 55.3691 110.656 54.9252C111.631 53.5663 112.089 52.0059 112.002 50.3083C111.841 46.9818 109.993 45.1195 105.705 43.9664C104.754 43.7101 102.786 43.3075 101.61 43.1244C98.1143 42.5937 96.9154 42.0446 96.92 40.9876C96.9246 40.4797 97.1762 40.1045 97.7619 39.743C99.0111 38.9743 101.519 38.8141 103.148 39.4044C103.893 39.6789 104.584 40.2326 104.863 40.7908L105.001 41.0654L108.19 41.0791L111.379 41.0882V40.9876C111.379 40.6261 110.981 39.4181 110.638 38.7363C108.89 35.245 104.982 33.3095 100.1 33.5246Z" fill="#F5F5F3"/>
<path d="M81.4062 46.6704V58.2927H84.4949H87.5835V46.6704V35.048H84.4949H81.4062V46.6704Z" fill="#F5F5F3"/>
</svg>
