<svg width="608" height="801" viewBox="0 0 608 801" fill="none" xmlns="http://www.w3.org/2000/svg">
<g opacity="0.1">
<path d="M304 1C387.567 1 463.295 45.6086 518.164 117.873C573.034 190.138 607 290.016 607 400.38C607 510.743 573.034 610.621 518.164 682.887C463.295 755.151 387.567 799.76 304 799.76C220.433 799.76 144.705 755.151 89.8359 682.887C34.9665 610.621 1.00001 510.743 1 400.38C1 290.016 34.9665 190.138 89.8359 117.873C144.705 45.6086 220.433 1 304 1Z" stroke="#181934" stroke-width="2"/>
<ellipse cx="304.001" cy="400.381" rx="186.403" ry="245.5" stroke="#181934" stroke-width="35"/>
<path d="M304 314.055C321.929 314.055 338.233 323.624 350.088 339.236C361.943 354.85 369.305 376.464 369.305 400.38C369.305 424.296 361.943 445.911 350.088 461.524C338.233 477.137 321.929 486.706 304 486.706C286.071 486.706 269.767 477.137 257.912 461.524C246.057 445.911 238.695 424.296 238.695 400.38C238.695 376.464 246.057 354.85 257.912 339.236C269.767 323.624 286.071 314.055 304 314.055Z" stroke="#181934" stroke-width="2"/>
<path d="M302.748 313.054V3.29492" stroke="#181934" stroke-width="2" stroke-dasharray="4 4"/>
<path d="M360.296 444.869L565.465 599.748" stroke="#181934" stroke-width="2" stroke-dasharray="4 4"/>
<path d="M247.704 444.869L42.5352 599.748" stroke="#181934" stroke-width="2" stroke-dasharray="4 4"/>
<path d="M304 366.779C310.875 366.779 317.17 370.447 321.78 376.519C326.391 382.591 329.271 391.024 329.271 400.38C329.271 409.736 326.391 418.17 321.78 424.242C317.17 430.313 310.874 433.98 304 433.98C297.126 433.98 290.83 430.314 286.22 424.242C281.609 418.17 278.729 409.736 278.729 400.38C278.729 391.024 281.609 382.591 286.22 376.519C290.83 370.447 297.125 366.779 304 366.779Z" fill="white" stroke="#181934" stroke-width="2"/>
</g>
</svg>
