<svg width="28" height="28" viewBox="0 0 28 28" fill="none" xmlns="http://www.w3.org/2000/svg">
<path d="M6.06564 7.84164C5.66308 7.42471 5.46289 6.90863 5.46289 6.29459C5.46289 5.68055 5.66415 5.14177 6.06564 4.72364C6.46819 4.30672 6.98637 4.09766 7.62125 4.09766C8.25613 4.09766 8.75398 4.30672 9.15546 4.72364C9.55801 5.14057 9.75821 5.66502 9.75821 6.29459C9.75821 6.92416 9.55694 7.42471 9.15546 7.84164C8.75291 8.25857 8.24221 8.46763 7.62125 8.46763C7.00029 8.46763 6.46819 8.25857 6.06564 7.84164ZM9.4199 10.2333V23.0159H5.80013V10.2333H9.4199Z" fill="#5033FF"/>
<path d="M21.3547 11.4961C22.1438 12.4518 22.5377 13.7635 22.5377 15.4336V22.7901H19.1V15.9521C19.1 15.1098 18.9041 14.4552 18.5133 13.9893C18.1225 13.5234 17.5958 13.2892 16.9363 13.2892C16.2768 13.2892 15.75 13.5222 15.3592 13.9893C14.9685 14.4552 14.7725 15.1098 14.7725 15.9521V22.7901H11.3145V10.1975H14.7725V11.8676C15.1226 11.3109 15.5948 10.8713 16.1879 10.5475C16.781 10.2238 17.448 10.0625 18.19 10.0625C19.5111 10.0625 20.5667 10.5404 21.3547 11.4949V11.4961Z" fill="#5033FF"/>
<rect x="1" y="1" width="26" height="26" rx="4" stroke="#5033FF" stroke-width="2"/>
</svg>
