<svg width="78" height="64" viewBox="0 0 78 64" fill="none" xmlns="http://www.w3.org/2000/svg">
<path d="M31.5928 10.3535C28.3526 13.5937 25.7352 16.6473 23.7412 19.5137C21.7473 22.38 20.2519 25.3089 19.2549 28.2998C19.1424 28.6693 19.0374 29.0431 18.9395 29.4209H34.584V63.4443H0V42.1328C3.36964e-05 36.8986 0.622902 32.0382 1.86914 27.5518C3.11542 22.9405 5.10976 18.4538 7.85156 14.0918C10.5933 9.6053 14.2698 5.05643 18.8809 0.445312L31.5928 10.3535ZM74.5898 10.3535C71.3495 13.5938 68.7323 16.6472 66.7383 19.5137C64.7443 22.3801 63.248 25.3088 62.251 28.2998C62.1385 28.6693 62.0335 29.0431 61.9355 29.4209H77.5811V63.4443H42.9961V42.1328C42.9961 36.8986 43.62 32.0382 44.8662 27.5518C46.1125 22.9406 48.1059 18.4537 50.8477 14.0918C53.5895 9.6052 57.2667 5.05653 61.8779 0.445312L74.5898 10.3535Z" fill="#5033FF"/>
</svg>
