<svg width="51" height="48" viewBox="0 0 51 48" fill="none" xmlns="http://www.w3.org/2000/svg">
<path d="M36.4939 32.7314L44.9207 41.3115C44.7595 41.5111 43.5429 42.9886 41.4695 44.7148C39.2524 46.5608 37.3614 47.4686 37.3386 47.4795L28.8289 38.9775C28.8026 38.9521 27.2442 37.4493 25.4422 37.4492C23.6247 37.4492 22.0545 38.9775 22.0545 38.9775L13.5457 47.4795C13.5342 47.4729 10.9818 45.9913 9.45681 44.7148C7.93544 43.4413 6.04532 41.3085 6.0281 41.2891L14.5867 32.7197H25.4422L36.4939 32.7314ZM24.1843 11.6963L18.7566 21.0986L13.2205 30.6641L1.57595 33.6709C1.48355 33.431 0.813479 31.6387 0.355245 28.9805C-0.137764 26.1203 0.026143 24.0205 0.026143 24.0205L11.6433 20.9023C11.6685 20.8952 13.7566 20.2978 14.6599 18.7334C15.5632 17.1689 15.0364 15.0614 15.03 15.0361L11.9226 3.41602C11.9489 3.40095 14.4986 1.93728 16.3611 1.25684C18.2332 0.57293 21.0427 0 21.0427 0L24.1843 11.6963ZM29.9588 0C29.9588 0 32.7673 0.57294 34.6394 1.25684C36.5116 1.94074 39.0789 3.41602 39.0789 3.41602L35.9705 15.0361C35.9626 15.0675 35.4387 17.1712 36.3406 18.7334C37.2493 20.3074 39.3582 20.9023 39.3582 20.9023L50.9754 24.0205C50.9754 24.0205 51.1393 26.1203 50.6463 28.9805C50.1879 31.6392 49.5168 33.4315 49.4246 33.6709L37.781 30.6641L32.2449 21.0986L26.8172 11.6963L29.9588 0Z" fill="#5033FF"/>
</svg>
