<svg width="78" height="64" viewBox="0 0 78 64" fill="none" xmlns="http://www.w3.org/2000/svg">
<path d="M34.584 21.9434C34.584 27.0531 33.9611 31.9142 32.7148 36.5254C31.5932 41.1363 29.6615 45.6227 26.9199 49.9844C24.1781 54.3463 20.439 58.896 15.7031 63.6318L3.17773 53.5371C6.41801 50.4215 9.03527 47.4299 11.0293 44.5635C13.0233 41.697 14.4567 38.8303 15.3291 35.9639C15.4734 35.469 15.6042 34.9704 15.7246 34.4688H0V0.445312H34.584V21.9434ZM77.5811 21.9434C77.5811 27.0531 76.9572 31.9142 75.7109 36.5254C74.5893 41.1364 72.6576 45.6226 69.916 49.9844C67.1742 54.3463 63.4351 58.896 58.6992 63.6318L46.1748 53.5371C49.4151 50.4214 52.0323 47.4299 54.0264 44.5635C56.0204 41.6971 57.4538 38.8303 58.3262 35.9639C58.4705 35.469 58.6012 34.9704 58.7217 34.4688H42.9961V0.445312H77.5811V21.9434Z" fill="#5033FF"/>
</svg>
