<svg width="49" height="46" viewBox="0 0 49 46" fill="none" xmlns="http://www.w3.org/2000/svg">
<path d="M34.7815 31.1934L42.8127 39.3711C42.6591 39.5613 41.4987 40.9681 39.5227 42.6133C37.4033 44.3779 35.5971 45.2438 35.5862 45.249L27.4768 37.1465C27.4768 37.1465 25.9804 35.6895 24.2483 35.6895C22.5161 35.6895 21.0197 37.1465 21.0197 37.1465L12.9104 45.249C12.9104 45.249 10.4695 43.8326 9.01291 42.6133C7.55631 41.3939 5.74533 39.3486 5.74533 39.3486L13.9016 31.1826H24.2483L34.7815 31.1934ZM23.049 11.1475L17.8762 20.1074L12.5998 29.2246L1.50217 32.0908C1.41429 31.8627 0.775886 30.1541 0.339083 27.6201C-0.127567 24.9129 0.0225335 22.9208 0.02463 22.8936L11.0969 19.9209C11.1088 19.9175 13.1094 19.3492 13.9729 17.8535C14.8336 16.362 14.3312 14.3531 14.3254 14.3301L11.3625 3.25488C11.3625 3.25488 13.8097 1.84907 15.594 1.19727C17.3771 0.545914 20.0514 0.000710522 20.0549 0L23.049 11.1475ZM28.55 0C28.55 0 31.2267 0.545507 33.011 1.19727C34.7952 1.84907 37.2424 3.25488 37.2424 3.25488L34.2795 14.3301C34.2733 14.3547 33.7717 16.3627 34.6321 17.8535C35.4936 19.3457 37.487 19.9149 37.508 19.9209L48.5803 22.8936C48.5824 22.9204 48.7325 24.9126 48.2658 27.6201C47.829 30.1541 47.1906 31.8627 47.1028 32.0908L36.0051 29.2246L30.7287 20.1074L25.5559 11.1475L28.55 0Z" fill="#F5F5F3"/>
</svg>
