<svg width="657" height="654" viewBox="0 0 657 654" fill="none" xmlns="http://www.w3.org/2000/svg">
<path d="M651.309 327C651.309 149.396 506.734 5.38272 328.346 5.38272C149.957 5.38272 5.38272 149.396 5.38272 327C5.38272 504.604 149.957 648.617 328.346 648.617V654C147.005 654 0 507.597 0 327C0 146.403 147.005 0 328.346 0C509.686 0 656.691 146.403 656.691 327C656.691 507.597 509.686 654 328.346 654V648.617C506.734 648.617 651.309 504.604 651.309 327Z" fill="#181934"/>
<path d="M484.444 327C484.444 241.575 414.598 172.247 328.345 172.247C242.091 172.247 172.246 241.575 172.246 327C172.246 412.426 242.091 481.753 328.345 481.753V487.136C239.161 487.136 166.863 415.441 166.863 327C166.863 238.56 239.161 166.865 328.345 166.865C417.529 166.865 489.826 238.56 489.826 327C489.826 415.441 417.529 487.136 328.345 487.136V481.753C414.598 481.753 484.444 412.426 484.444 327Z" fill="#181934"/>
<path d="M323.057 567.821C324.815 567.859 326.578 567.877 328.345 567.877V573.259C326.539 573.259 324.738 573.24 322.941 573.201L323.057 567.821ZM302.031 566.47C305.508 566.844 309.008 567.146 312.528 567.372L312.184 572.744C308.587 572.514 305.009 572.206 301.455 571.824L302.031 566.47ZM281.191 563.317C284.629 563.991 288.093 564.591 291.581 565.12L290.777 570.442C287.211 569.902 283.67 569.286 280.156 568.597L281.191 563.317ZM260.704 558.36C264.07 559.331 267.468 560.233 270.894 561.061L269.627 566.292C266.125 565.445 262.652 564.525 259.211 563.532L260.704 558.36ZM240.731 551.636C244.001 552.899 247.306 554.093 250.643 555.216L249.786 557.768L248.926 560.318C245.515 559.169 242.137 557.949 238.794 556.659L240.731 551.636ZM221.424 543.2C224.573 544.743 227.761 546.219 230.986 547.628L228.831 552.562C225.534 551.121 222.273 549.611 219.053 548.033L221.424 543.2ZM202.921 533.112C205.926 534.924 208.974 536.672 212.062 538.356L209.487 543.084C206.329 541.362 203.212 539.572 200.14 537.72L202.921 533.112ZM185.362 521.453C188.199 523.52 191.084 525.527 194.014 527.472L191.036 531.956C188.041 529.968 185.092 527.916 182.192 525.803L185.362 521.453ZM168.88 508.317C171.529 510.623 174.228 512.873 176.977 515.064L173.624 519.272C170.814 517.032 168.052 514.732 165.345 512.375L168.88 508.317ZM153.596 493.804C156.036 496.331 158.533 498.806 161.081 501.226L157.373 505.129C154.768 502.655 152.219 500.125 149.725 497.541L153.596 493.804ZM139.629 478.018C141.842 480.749 144.114 483.433 146.442 486.064L142.41 489.63C140.031 486.941 137.709 484.2 135.448 481.409L139.629 478.018ZM127.087 461.082C129.054 463.996 131.085 466.865 133.174 469.687L128.848 472.891C126.712 470.006 124.638 467.073 122.627 464.094L127.087 461.082ZM116.072 443.117C117.777 446.193 119.55 449.227 121.384 452.219L116.795 455.031C114.92 451.973 113.108 448.872 111.365 445.727L116.072 443.117ZM106.679 424.257C108.107 427.472 109.604 430.65 111.168 433.79L106.35 436.189C104.751 432.98 103.219 429.731 101.759 426.444L106.679 424.257ZM98.9805 404.645C100.12 407.975 101.332 411.272 102.613 414.535L97.6006 416.501C96.2915 413.165 95.0548 409.792 93.8895 406.387L96.4337 405.515L98.9805 404.645ZM93.0485 384.425C93.8897 387.846 94.8034 391.238 95.7898 394.599L93.2088 395.359L90.6252 396.116C89.6164 392.678 88.6812 389.209 87.8208 385.711L90.4333 385.067L93.0485 384.425ZM88.9247 363.751C89.4613 367.237 90.0714 370.7 90.7566 374.136L85.479 375.187C84.7784 371.675 84.1537 368.135 83.6051 364.571L88.9247 363.751ZM86.6355 342.814C86.8648 346.334 87.1704 349.833 87.5501 353.309L82.1989 353.893C81.8108 350.339 81.5003 346.762 81.2659 343.164L83.952 342.991L86.6355 342.814ZM86.123 327C86.123 328.767 86.1427 330.53 86.1808 332.288L80.7981 332.404C80.7592 330.607 80.7402 328.806 80.7402 327H86.123ZM575.892 321.596C575.931 323.393 575.95 325.194 575.95 327H570.567C570.567 325.233 570.548 323.47 570.51 321.712L575.892 321.596ZM574.491 300.108C574.88 303.662 575.19 307.239 575.424 310.836L572.738 311.01L570.055 311.186C569.826 307.666 569.52 304.167 569.14 300.691L574.491 300.108ZM571.211 278.813C571.912 282.325 572.537 285.865 573.085 289.429L567.766 290.249C567.229 286.763 566.619 283.3 565.934 279.865L571.211 278.813ZM566.065 257.884C567.074 261.322 568.009 264.791 568.87 268.29L566.257 268.934L563.642 269.575C562.801 266.154 561.887 262.762 560.901 259.401L563.482 258.641L566.065 257.884ZM559.087 237.499C560.396 240.836 561.635 244.207 562.801 247.613L560.257 248.485L557.71 249.355C556.57 246.025 555.358 242.728 554.078 239.465L559.087 237.499ZM550.34 217.811C551.939 221.021 553.471 224.269 554.932 227.557L550.012 229.743C548.583 226.528 547.087 223.35 545.523 220.21L550.34 217.811ZM539.895 198.966C541.771 202.025 543.582 205.128 545.325 208.273L540.618 210.883C538.913 207.807 537.141 204.773 535.306 201.781L539.895 198.966ZM527.842 181.11C529.978 183.994 532.052 186.927 534.063 189.906L529.603 192.918C527.636 190.004 525.606 187.135 523.516 184.313L527.842 181.11ZM514.28 164.37C516.66 167.059 518.981 169.8 521.242 172.591L517.061 175.982C514.848 173.251 512.577 170.567 510.248 167.937L514.28 164.37ZM499.317 148.871C501.922 151.345 504.471 153.875 506.966 156.459L503.094 160.196C500.654 157.669 498.157 155.194 495.609 152.774L499.317 148.871ZM483.067 134.728C485.877 136.968 488.638 139.268 491.346 141.625L487.811 145.683C485.162 143.377 482.462 141.127 479.713 138.936L483.067 134.728ZM465.654 122.044C468.649 124.033 471.598 126.084 474.499 128.197L471.329 132.547C468.491 130.48 465.606 128.473 462.677 126.528L465.654 122.044ZM447.204 110.916C450.361 112.638 453.478 114.428 456.55 116.28L453.769 120.888C450.765 119.076 447.716 117.328 444.628 115.644L447.204 110.916ZM427.86 101.439C431.156 102.879 434.417 104.389 437.637 105.967L435.266 110.8C432.117 109.257 428.929 107.781 425.705 106.372L427.86 101.439ZM407.764 93.6825C411.175 94.8307 414.553 96.0508 417.896 97.3411L415.959 102.364C412.689 101.102 409.385 99.9071 406.048 98.784L406.904 96.2319L407.764 93.6825ZM387.064 87.7084C390.565 88.5554 394.038 89.4748 397.479 90.4681L395.987 95.6406C392.62 94.6689 389.222 93.7672 385.797 92.9387L387.064 87.7084ZM365.914 83.5584C369.48 84.0982 373.021 84.7139 376.535 85.4034L375.499 90.6836C372.062 90.0092 368.598 89.4088 365.11 88.8806L365.914 83.5584ZM344.506 81.256C348.104 81.4865 351.681 81.7941 355.235 82.1759L354.66 87.5271C351.182 87.1535 347.682 86.8538 344.162 86.6282L344.506 81.256ZM328.345 80.7408C330.151 80.7408 331.952 80.7604 333.749 80.7987L333.633 86.1788C331.875 86.1413 330.112 86.1236 328.345 86.1236V80.7408Z" fill="#181934"/>
<path d="M357.95 328.346C357.95 344.696 344.696 357.951 328.345 357.951C311.995 357.951 298.74 344.696 298.74 328.346C298.74 311.996 311.995 298.741 328.345 298.741C344.696 298.741 357.95 311.996 357.95 328.346Z" fill="#181934"/>
<path d="M326.999 166.865C415.44 166.865 487.135 238.56 487.135 327C487.135 415.441 415.44 487.136 326.999 487.136C238.559 487.136 166.863 415.441 166.863 327C166.863 238.56 238.559 166.865 326.999 166.865ZM326.999 258.371C289.096 258.371 258.369 289.097 258.369 327C258.369 364.904 289.096 395.63 326.999 395.63C364.902 395.63 395.629 364.904 395.629 327C395.629 289.097 364.902 258.371 326.999 258.371Z" fill="#181934"/>
</svg>
