<svg width="700" height="700" viewBox="0 0 700 700" fill="none" xmlns="http://www.w3.org/2000/svg">
<path d="M273.676 348.663C273.668 349.107 273.663 349.553 273.663 350C273.663 392.159 307.84 426.337 350 426.337C350.072 426.337 350.145 426.336 350.217 426.335V614.235C350.087 614.235 349.957 614.237 349.827 614.237C203.798 614.237 85.418 495.857 85.418 349.828C85.418 349.439 85.4202 349.051 85.4219 348.663H273.676ZM349.827 85.4185C495.468 85.4185 613.605 203.17 614.232 348.664H426.325C425.612 307.12 391.714 273.663 350 273.663C349.813 273.663 349.626 273.664 349.439 273.666V85.4194C349.569 85.4192 349.698 85.4185 349.827 85.4185Z" fill="#181934"/>
<circle cx="350" cy="350" r="349" stroke="#181934" stroke-width="2"/>
<circle cx="350" cy="350" r="170.399" stroke="#181934" stroke-width="2" stroke-dasharray="10 10"/>
<circle cx="350.001" cy="350" r="75.3374" stroke="#181934" stroke-width="2"/>
<circle cx="350" cy="350" r="30.2469" fill="#181934"/>
</svg>
