<svg width="906" height="902" viewBox="0 0 906 902" fill="none" xmlns="http://www.w3.org/2000/svg">
<path d="M452.868 5C700.077 5 900.445 204.576 900.445 450.722C900.445 696.868 700.077 896.443 452.868 896.443C205.659 896.443 5.29152 696.867 5.2915 450.722C5.2915 204.576 205.659 5.00016 452.868 5Z" stroke="white" stroke-width="10"/>
<path d="M790.446 450.722C790.446 265.307 639.307 114.999 452.868 114.999M452.868 786.444C266.429 786.444 115.291 636.136 115.291 450.722" stroke="white" stroke-width="10" stroke-dasharray="10 10"/>
<circle cx="456.578" cy="452.577" r="40.8061" fill="white"/>
<path d="M454.723 229.998C576.625 229.998 675.446 328.819 675.446 450.721C675.446 572.624 576.625 671.445 454.723 671.445C332.82 671.445 233.999 572.623 233.999 450.721C233.999 328.819 332.821 229.998 454.723 229.998ZM454.723 356.125C402.479 356.126 360.127 398.477 360.127 450.721C360.127 502.965 402.479 545.317 454.723 545.317C506.967 545.317 549.318 502.965 549.318 450.721C549.318 398.477 506.966 356.125 454.723 356.125Z" fill="white"/>
</svg>
