<svg width="28" height="28" viewBox="0 0 28 28" fill="none" xmlns="http://www.w3.org/2000/svg">
<path d="M19.8552 0.257812H8.1553C3.74308 0.257812 0.166016 3.83325 0.166016 8.24348V19.9381C0.166016 24.3483 3.74308 27.9238 8.1553 27.9238H19.8567C24.269 27.9238 27.846 24.3483 27.846 19.9381V8.24348C27.846 3.83325 24.269 0.257812 19.8567 0.257812M25.296 20.1453C25.296 23.0731 22.921 25.4455 19.9918 25.4455H8.01866C5.08946 25.4455 2.71601 23.0716 2.71601 20.1453V8.17596C2.71601 5.24809 5.091 2.87571 8.01866 2.87571H19.9934C22.9226 2.87571 25.2976 5.24962 25.2976 8.17596V20.1453H25.296Z" fill="#181934"/>
<path d="M14.006 6.98242C10.0405 6.98242 6.82422 10.1957 6.82422 14.1609C6.82422 18.1261 10.0405 21.3394 14.006 21.3394C17.9714 21.3394 21.1877 18.1261 21.1877 14.1609C21.1877 10.1957 17.973 6.98242 14.006 6.98242ZM14.006 18.8136C11.4345 18.8136 9.35119 16.7297 9.35119 14.1609C9.35119 11.5921 11.436 9.50825 14.006 9.50825C16.5759 9.50825 18.6623 11.5921 18.6623 14.1609C18.6623 16.7297 16.5775 18.8136 14.006 18.8136Z" fill="#181934"/>
<path d="M21.4292 5.03516C20.505 5.03516 19.7559 5.78376 19.7559 6.70725C19.7559 7.63073 20.505 8.37934 21.4292 8.37934C22.3535 8.37934 23.1026 7.63073 23.1026 6.70725C23.1026 5.78376 22.3535 5.03516 21.4292 5.03516Z" fill="#181934"/>
</svg>
