<svg width="25" height="28" viewBox="0 0 25 28" fill="none" xmlns="http://www.w3.org/2000/svg">
<path d="M0.882593 5.48226C0.29314 4.87176 0 4.11608 0 3.21694C0 2.31781 0.294708 1.52888 0.882593 0.916625C1.47205 0.306124 2.23081 0 3.16046 0C4.0901 0 4.81909 0.306124 5.40697 0.916625C5.99643 1.52713 6.28957 2.29507 6.28957 3.21694C6.28957 4.13882 5.99486 4.87176 5.40697 5.48226C4.81752 6.09276 4.06972 6.39888 3.16046 6.39888C2.25119 6.39888 1.47205 6.09276 0.882593 5.48226ZM5.79419 8.98434V27.7017H0.493808V8.98434H5.79419Z" fill="#181934"/>
<path d="M23.2682 10.8335C24.4236 12.2329 25.0005 14.1537 25.0005 16.5992V27.3713H19.9667V17.3584C19.9667 16.1251 19.6798 15.1665 19.1076 14.4843C18.5354 13.8021 17.7641 13.4592 16.7984 13.4592C15.8327 13.4592 15.0613 13.8003 14.4891 14.4843C13.9169 15.1665 13.63 16.1251 13.63 17.3584V27.3713H8.56641V8.93205H13.63V11.3775C14.1427 10.5624 14.8341 9.91865 15.7026 9.4446C16.5711 8.97054 17.5477 8.73438 18.6341 8.73438C20.5687 8.73438 22.1144 9.43409 23.2682 10.8318V10.8335Z" fill="#181934"/>
</svg>
