<svg width="256" height="256" viewBox="0 0 256 256" fill="none" xmlns="http://www.w3.org/2000/svg">
<g clip-path="url(#clip0_817_13)">
<path d="M256 -0.563965H-0.563477V256.564H256V-0.563965Z" fill="#5033FF"/>
<path d="M75.0119 169.383L36.1045 208.291C46.2543 220.696 58.6596 230.846 72.7565 238.176L115.047 195.885C118.994 192.502 124.069 191.374 129.144 191.938C134.219 191.374 139.858 194.194 143.241 198.141C143.241 198.141 170.871 225.771 183.276 238.176C196.809 230.846 208.651 220.696 218.237 208.854L178.765 169.383C179.893 169.383 75.0119 169.383 75.0119 169.383Z" fill="#F5F5F3"/>
<path d="M123.365 70.4846C123.365 70.4846 113.779 32.7049 109.832 17.4802C94.043 20.2996 78.8184 25.3745 65.2853 34.3965L79.9461 91.9119C80.51 96.9868 79.3822 102.062 76.5629 106.009C73.7435 110.52 69.7963 114.467 64.1576 115.031L10.0254 128.564C10.0254 130.819 10.0254 131.947 10.0254 134.203C10.0254 147.736 12.281 161.269 16.792 174.238L69.7963 160.705L123.365 70.4846Z" fill="#F5F5F3"/>
<path d="M132.466 70.4846L186.034 160.705L239.039 174.238C243.55 161.833 245.805 148.3 245.805 134.203C245.805 131.947 245.805 130.819 245.805 128.564L191.673 115.031C186.598 113.903 181.523 111.084 179.268 106.009C175.884 102.062 175.32 96.9868 175.884 91.9119L190.545 34.3965C177.012 25.9384 161.787 20.2996 145.999 17.4802C142.052 32.7049 132.466 70.4846 132.466 70.4846Z" fill="#F5F5F3"/>
</g>
<defs>
<clipPath id="clip0_817_13">
<rect width="256" height="256" fill="white"/>
</clipPath>
</defs>
</svg>
