<svg width="32" height="32" viewBox="0 0 32 32" fill="none" xmlns="http://www.w3.org/2000/svg">
<g clip-path="url(#clip0_817_2)">
<path d="M32.0002 -0.0705566H-0.0703125V32.0704H32.0002V-0.0705566Z" fill="#5033FF"/>
<path d="M9.37613 21.1729L4.5127 26.0363C5.78142 27.5869 7.33208 28.8557 9.09419 29.772L14.3805 24.4856C14.8739 24.0627 15.5083 23.9218 16.1427 23.9922C16.777 23.9218 17.4819 24.2742 17.9048 24.7676C17.9048 24.7676 21.3585 28.2213 22.9092 29.772C24.6008 28.8557 26.081 27.5869 27.2792 26.1068L22.3453 21.1729C22.4863 21.1729 9.37613 21.1729 9.37613 21.1729Z" fill="#F5F5F3"/>
<path d="M15.4203 8.81061C15.4203 8.81061 14.2221 4.08814 13.7287 2.18506C11.7551 2.53748 9.85205 3.17184 8.16042 4.2996L9.99302 11.489C10.0635 12.1234 9.92254 12.7577 9.57011 13.2511C9.21769 13.815 8.7243 14.3084 8.01945 14.3789L1.25293 16.0705C1.25293 16.3525 1.25293 16.4934 1.25293 16.7754C1.25293 18.467 1.53488 20.1586 2.09875 21.7798L8.7243 20.0881L15.4203 8.81061Z" fill="#F5F5F3"/>
<path d="M16.5576 8.81061L23.2537 20.0881L29.8792 21.7798C30.4431 20.2291 30.725 18.5375 30.725 16.7754C30.725 16.4934 30.725 16.3525 30.725 16.0705L23.9585 14.3789C23.3241 14.2379 22.6898 13.8855 22.4078 13.2511C21.9849 12.7577 21.9144 12.1234 21.9849 11.489L23.8175 4.2996C22.1259 3.24233 20.2228 2.53748 18.2493 2.18506C17.7559 4.08814 16.5576 8.81061 16.5576 8.81061Z" fill="#F5F5F3"/>
</g>
<defs>
<clipPath id="clip0_817_2">
<rect width="32" height="32" fill="white"/>
</clipPath>
</defs>
</svg>
